# xmcd CD database file
#
# Track frame offsets:
#	182
#	18212
#	30745
#	44712
#	59230
#	73547
#	87120
#	99225
#	113087
#	126475
#	138067
#	152192
#	165612
#	179740
#	195612
#	208330
#
# Disc length: 2946 seconds
#
# Revision: 0
# Processed by: cddbd v1.5.2PL0 Copyright (c) Steve Scherf et al.
# Submitted via: CDex 1.81
#
DISCID=e90b8010
DTITLE=Fats Waller - The Legend - Compilation
DYEAR=1996
DGENRE=Jazz
TTITLE0=Ain't Misbehavin'
TTITLE1=That Gets It, Mr. Joe
TTITLE2=Your Socks Don't Match
TTITLE3=Then I'll Be Tired Of You
TTITLE4=Little Curly Hair In A High Chair
TTITLE5='Tain't No Biz-ness If I Do
TTITLE6=Come And Get It
TTITLE7=Sad Sap Sucker Am I
TTITLE8=Honeysuckle Rose
TTITLE9=Smarty (You Know It All)
TTITLE10=The Meanest Thing You Ever Did Was Kiss Me
TTITLE11=You Showed Me The Way
TTITLE12=What Will I Do In The Morning?
TTITLE13=Our Love Was Meant To Be
TTITLE14=The Joint Is Jumpin'
TTITLE15=You're My Dish
EXTD=YEAR: 1996
EXTT0=
EXTT1=
EXTT2=
EXTT3=
EXTT4=
EXTT5=
EXTT6=
EXTT7=
EXTT8=
EXTT9=
EXTT10=
EXTT11=
EXTT12=
EXTT13=
EXTT14=
EXTT15=
PLAYORDER=
